# Made by Wilux
mtllib steve.mtl

o Head
v 0.125 1.0 -0.125
v 0.125 1.0 0.125
v 0.125 0.75 0.125
v 0.125 0.75 -0.125
v -0.125 1.0 0.125
v -0.125 1.0 -0.125
v -0.125 0.75 -0.125
v -0.125 0.75 0.125
v 0.125 1.0 -0.125
v -0.125 1.0 -0.125
v -0.125 1.0 0.125
v 0.125 1.0 0.125
v 0.125 0.75 0.125
v -0.125 0.75 0.125
v -0.125 0.75 -0.125
v 0.125 0.75 -0.125
v 0.125 1.0 0.125
v -0.125 1.0 0.125
v -0.125 0.75 0.125
v 0.125 0.75 0.125
v -0.125 1.0 -0.125
v 0.125 1.0 -0.125
v 0.125 0.75 -0.125
v -0.125 0.75 -0.125
vt 0.125 1.0
vt 0.25 1.0
vt 0.375 1.0
vt 0.0 0.875
vt 0.125 0.875
vt 0.25 0.875
vt 0.375 0.875
vt 0.5 0.875
vt 0.0 0.75
vt 0.125 0.75
vt 0.25 0.75
vt 0.375 0.75
vt 0.5 0.75
vn 0.444 0.0 0.0
vn -0.444 0.0 0.0
vn 0.0 0.444 0.0
vn 0.0 -0.444 0.0
vn 0.0 0.0 0.444
vn 0.0 0.0 -0.444
usemtl m_32a6897e-4c41-36a4-cc6b-d8aec3b361de
f 1/7/1 2/6/1 3/11/1
f 1/7/1 3/11/1 4/12/1
f 5/5/2 6/4/2 7/9/2
f 5/5/2 7/9/2 8/10/2
f 9/2/3 10/1/3 11/5/3
f 9/2/3 11/5/3 12/6/3
f 13/7/4 14/6/4 15/2/4
f 13/7/4 15/2/4 16/3/4
f 17/6/5 18/5/5 19/10/5
f 17/6/5 19/10/5 20/11/5
f 21/8/6 22/7/6 23/12/6
f 21/8/6 23/12/6 24/13/6
o Body
v 0.125 0.75 -0.0625
v 0.125 0.75 0.0625
v 0.125 0.375 0.0625
v 0.125 0.375 -0.0625
v -0.125 0.75 0.0625
v -0.125 0.75 -0.0625
v -0.125 0.375 -0.0625
v -0.125 0.375 0.0625
v 0.125 0.75 -0.0625
v -0.125 0.75 -0.0625
v -0.125 0.75 0.0625
v 0.125 0.75 0.0625
v 0.125 0.375 0.0625
v -0.125 0.375 0.0625
v -0.125 0.375 -0.0625
v 0.125 0.375 -0.0625
v 0.125 0.75 0.0625
v -0.125 0.75 0.0625
v -0.125 0.375 0.0625
v 0.125 0.375 0.0625
v -0.125 0.75 -0.0625
v 0.125 0.75 -0.0625
v 0.125 0.375 -0.0625
v -0.125 0.375 -0.0625
vt 0.3125 0.75
vt 0.4375 0.75
vt 0.5625 0.75
vt 0.25 0.6875
vt 0.3125 0.6875
vt 0.4375 0.6875
vt 0.5 0.6875
vt 0.625 0.6875
vt 0.25 0.5
vt 0.3125 0.5
vt 0.4375 0.5
vt 0.5 0.5
vt 0.625 0.5
vn 0.444 0.0 0.0
vn -0.444 0.0 0.0
vn 0.0 0.444 0.0
vn 0.0 -0.444 0.0
vn 0.0 0.0 0.444
vn 0.0 0.0 -0.444
usemtl m_32a6897e-4c41-36a4-cc6b-d8aec3b361de
f 25/20/7 26/19/7 27/24/7
f 25/20/7 27/24/7 28/25/7
f 29/18/8 30/17/8 31/22/8
f 29/18/8 31/22/8 32/23/8
f 33/15/9 34/14/9 35/18/9
f 33/15/9 35/18/9 36/19/9
f 37/20/10 38/19/10 39/15/10
f 37/20/10 39/15/10 40/16/10
f 41/19/11 42/18/11 43/23/11
f 41/19/11 43/23/11 44/24/11
f 45/21/12 46/20/12 47/25/12
f 45/21/12 47/25/12 48/26/12
o RArm
v 0.25 0.75 -0.0625
v 0.25 0.75 0.0625
v 0.25 0.375 0.0625
v 0.25 0.375 -0.0625
v 0.125 0.75 0.0625
v 0.125 0.75 -0.0625
v 0.125 0.375 -0.0625
v 0.125 0.375 0.0625
v 0.25 0.75 -0.0625
v 0.125 0.75 -0.0625
v 0.125 0.75 0.0625
v 0.25 0.75 0.0625
v 0.25 0.375 0.0625
v 0.125 0.375 0.0625
v 0.125 0.375 -0.0625
v 0.25 0.375 -0.0625
v 0.25 0.75 0.0625
v 0.125 0.75 0.0625
v 0.125 0.375 0.0625
v 0.25 0.375 0.0625
v 0.125 0.75 -0.0625
v 0.25 0.75 -0.0625
v 0.25 0.375 -0.0625
v 0.125 0.375 -0.0625
vt 0.5625 0.25
vt 0.625 0.25
vt 0.6875 0.25
vt 0.5 0.1875
vt 0.5625 0.1875
vt 0.625 0.1875
vt 0.6875 0.1875
vt 0.75 0.1875
vt 0.5 0.0
vt 0.5625 0.0
vt 0.625 0.0
vt 0.6875 0.0
vt 0.75 0.0
vn 0.444 0.0 0.0
vn -0.444 0.0 0.0
vn 0.0 0.444 0.0
vn 0.0 -0.444 0.0
vn 0.0 0.0 0.444
vn 0.0 0.0 -0.444
usemtl m_32a6897e-4c41-36a4-cc6b-d8aec3b361de
f 49/33/13 50/32/13 51/37/13
f 49/33/13 51/37/13 52/38/13
f 53/31/14 54/30/14 55/35/14
f 53/31/14 55/35/14 56/36/14
f 57/28/15 58/27/15 59/31/15
f 57/28/15 59/31/15 60/32/15
f 61/33/16 62/32/16 63/28/16
f 61/33/16 63/28/16 64/29/16
f 65/32/17 66/31/17 67/36/17
f 65/32/17 67/36/17 68/37/17
f 69/34/18 70/33/18 71/38/18
f 69/34/18 71/38/18 72/39/18
o LArm
v -0.125 0.75 -0.0625
v -0.125 0.75 0.0625
v -0.125 0.375 0.0625
v -0.125 0.375 -0.0625
v -0.25 0.75 0.0625
v -0.25 0.75 -0.0625
v -0.25 0.375 -0.0625
v -0.25 0.375 0.0625
v -0.125 0.75 -0.0625
v -0.25 0.75 -0.0625
v -0.25 0.75 0.0625
v -0.125 0.75 0.0625
v -0.125 0.375 0.0625
v -0.25 0.375 0.0625
v -0.25 0.375 -0.0625
v -0.125 0.375 -0.0625
v -0.125 0.75 0.0625
v -0.25 0.75 0.0625
v -0.25 0.375 0.0625
v -0.125 0.375 0.0625
v -0.25 0.75 -0.0625
v -0.125 0.75 -0.0625
v -0.125 0.375 -0.0625
v -0.25 0.375 -0.0625
vt 0.6875 0.75
vt 0.75 0.75
vt 0.8125 0.75
vt 0.625 0.6875
vt 0.6875 0.6875
vt 0.75 0.6875
vt 0.8125 0.6875
vt 0.875 0.6875
vt 0.625 0.5
vt 0.6875 0.5
vt 0.75 0.5
vt 0.8125 0.5
vt 0.875 0.5
vn 0.444 0.0 0.0
vn -0.444 0.0 0.0
vn 0.0 0.444 0.0
vn 0.0 -0.444 0.0
vn 0.0 0.0 0.444
vn 0.0 0.0 -0.444
usemtl m_32a6897e-4c41-36a4-cc6b-d8aec3b361de
f 73/46/19 74/45/19 75/50/19
f 73/46/19 75/50/19 76/51/19
f 77/44/20 78/43/20 79/48/20
f 77/44/20 79/48/20 80/49/20
f 81/41/21 82/40/21 83/44/21
f 81/41/21 83/44/21 84/45/21
f 85/46/22 86/45/22 87/41/22
f 85/46/22 87/41/22 88/42/22
f 89/45/23 90/44/23 91/49/23
f 89/45/23 91/49/23 92/50/23
f 93/47/24 94/46/24 95/51/24
f 93/47/24 95/51/24 96/52/24
o RLeg
v 0.125 0.375 -0.0625
v 0.125 0.375 0.0625
v 0.125 0.0 0.0625
v 0.125 0.0 -0.0625
v 0.0 0.375 0.0625
v 0.0 0.375 -0.0625
v 0.0 0.0 -0.0625
v 0.0 0.0 0.0625
v 0.125 0.375 -0.0625
v 0.0 0.375 -0.0625
v 0.0 0.375 0.0625
v 0.125 0.375 0.0625
v 0.125 0.0 0.0625
v 0.0 0.0 0.0625
v 0.0 0.0 -0.0625
v 0.125 0.0 -0.0625
v 0.125 0.375 0.0625
v 0.0 0.375 0.0625
v 0.0 0.0 0.0625
v 0.125 0.0 0.0625
v 0.0 0.375 -0.0625
v 0.125 0.375 -0.0625
v 0.125 0.0 -0.0625
v 0.0 0.0 -0.0625
vt 0.3125 0.25
vt 0.375 0.25
vt 0.4375 0.25
vt 0.25 0.1875
vt 0.3125 0.1875
vt 0.375 0.1875
vt 0.4375 0.1875
vt 0.5 0.1875
vt 0.25 0.0
vt 0.3125 0.0
vt 0.375 0.0
vt 0.4375 0.0
vt 0.5 0.0
vn 0.444 0.0 0.0
vn -0.444 0.0 0.0
vn 0.0 0.444 0.0
vn 0.0 -0.444 0.0
vn 0.0 0.0 0.444
vn 0.0 0.0 -0.444
usemtl m_32a6897e-4c41-36a4-cc6b-d8aec3b361de
f 97/59/25 98/58/25 99/63/25
f 97/59/25 99/63/25 100/64/25
f 101/57/26 102/56/26 103/61/26
f 101/57/26 103/61/26 104/62/26
f 105/54/27 106/53/27 107/57/27
f 105/54/27 107/57/27 108/58/27
f 109/59/28 110/58/28 111/54/28
f 109/59/28 111/54/28 112/55/28
f 113/58/29 114/57/29 115/62/29
f 113/58/29 115/62/29 116/63/29
f 117/60/30 118/59/30 119/64/30
f 117/60/30 119/64/30 120/65/30
o LLeg
v 0.0 0.375 -0.0625
v 0.0 0.375 0.0625
v 0.0 0.0 0.0625
v 0.0 0.0 -0.0625
v -0.125 0.375 0.0625
v -0.125 0.375 -0.0625
v -0.125 0.0 -0.0625
v -0.125 0.0 0.0625
v 0.0 0.375 -0.0625
v -0.125 0.375 -0.0625
v -0.125 0.375 0.0625
v 0.0 0.375 0.0625
v 0.0 0.0 0.0625
v -0.125 0.0 0.0625
v -0.125 0.0 -0.0625
v 0.0 0.0 -0.0625
v 0.0 0.375 0.0625
v -0.125 0.375 0.0625
v -0.125 0.0 0.0625
v 0.0 0.0 0.0625
v -0.125 0.375 -0.0625
v 0.0 0.375 -0.0625
v 0.0 0.0 -0.0625
v -0.125 0.0 -0.0625
vt 0.0625 0.75
vt 0.125 0.75
vt 0.1875 0.75
vt 0.0 0.6875
vt 0.0625 0.6875
vt 0.125 0.6875
vt 0.1875 0.6875
vt 0.25 0.6875
vt 0.0 0.5
vt 0.0625 0.5
vt 0.125 0.5
vt 0.1875 0.5
vt 0.25 0.5
vn 0.444 0.0 0.0
vn -0.444 0.0 0.0
vn 0.0 0.444 0.0
vn 0.0 -0.444 0.0
vn 0.0 0.0 0.444
vn 0.0 0.0 -0.444
usemtl m_32a6897e-4c41-36a4-cc6b-d8aec3b361de
f 121/72/31 122/71/31 123/76/31
f 121/72/31 123/76/31 124/77/31
f 125/70/32 126/69/32 127/74/32
f 125/70/32 127/74/32 128/75/32
f 129/67/33 130/66/33 131/70/33
f 129/67/33 131/70/33 132/71/33
f 133/72/34 134/71/34 135/67/34
f 133/72/34 135/67/34 136/68/34
f 137/71/35 138/70/35 139/75/35
f 137/71/35 139/75/35 140/76/35
f 141/73/36 142/72/36 143/77/36
f 141/73/36 143/77/36 144/78/36
o oHead
v 0.140625 1.015625 -0.140625
v 0.140625 1.015625 0.140625
v 0.140625 0.734375 0.140625
v 0.140625 0.734375 -0.140625
v -0.140625 1.015625 0.140625
v -0.140625 1.015625 -0.140625
v -0.140625 0.734375 -0.140625
v -0.140625 0.734375 0.140625
v 0.140625 1.015625 -0.140625
v -0.140625 1.015625 -0.140625
v -0.140625 1.015625 0.140625
v 0.140625 1.015625 0.140625
v 0.140625 0.734375 0.140625
v -0.140625 0.734375 0.140625
v -0.140625 0.734375 -0.140625
v 0.140625 0.734375 -0.140625
v 0.140625 1.015625 0.140625
v -0.140625 1.015625 0.140625
v -0.140625 0.734375 0.140625
v 0.140625 0.734375 0.140625
v -0.140625 1.015625 -0.140625
v 0.140625 1.015625 -0.140625
v 0.140625 0.734375 -0.140625
v -0.140625 0.734375 -0.140625
vt 0.625 1.0
vt 0.75 1.0
vt 0.875 1.0
vt 0.5 0.875
vt 0.625 0.875
vt 0.75 0.875
vt 0.875 0.875
vt 1.0 0.875
vt 0.5 0.75
vt 0.625 0.75
vt 0.75 0.75
vt 0.875 0.75
vt 1.0 0.75
vn 0.444 0.0 0.0
vn -0.444 0.0 0.0
vn 0.0 0.444 0.0
vn 0.0 -0.444 0.0
vn 0.0 0.0 0.444
vn 0.0 0.0 -0.444
usemtl m_32a6897e-4c41-36a4-cc6b-d8aec3b361de
f 145/85/37 146/84/37 147/89/37
f 145/85/37 147/89/37 148/90/37
f 149/83/38 150/82/38 151/87/38
f 149/83/38 151/87/38 152/88/38
f 153/80/39 154/79/39 155/83/39
f 153/80/39 155/83/39 156/84/39
f 157/85/40 158/84/40 159/80/40
f 157/85/40 159/80/40 160/81/40
f 161/84/41 162/83/41 163/88/41
f 161/84/41 163/88/41 164/89/41
f 165/86/42 166/85/42 167/90/42
f 165/86/42 167/90/42 168/91/42
o oLLeg
v 0.0078125 0.3984375 -0.0703125
v 0.0078125 0.3984375 0.0703125
v 0.0078125 -0.0234375 0.0703125
v 0.0078125 -0.0234375 -0.0703125
v -0.1328125 0.3984375 0.0703125
v -0.1328125 0.3984375 -0.0703125
v -0.1328125 -0.0234375 -0.0703125
v -0.1328125 -0.0234375 0.0703125
v 0.0078125 0.3984375 -0.0703125
v -0.1328125 0.3984375 -0.0703125
v -0.1328125 0.3984375 0.0703125
v 0.0078125 0.3984375 0.0703125
v 0.0078125 -0.0234375 0.0703125
v -0.1328125 -0.0234375 0.0703125
v -0.1328125 -0.0234375 -0.0703125
v 0.0078125 -0.0234375 -0.0703125
v 0.0078125 0.3984375 0.0703125
v -0.1328125 0.3984375 0.0703125
v -0.1328125 -0.0234375 0.0703125
v 0.0078125 -0.0234375 0.0703125
v -0.1328125 0.3984375 -0.0703125
v 0.0078125 0.3984375 -0.0703125
v 0.0078125 -0.0234375 -0.0703125
v -0.1328125 -0.0234375 -0.0703125
vt 0.0625 0.5
vt 0.125 0.5
vt 0.1875 0.5
vt 0.0 0.4375
vt 0.0625 0.4375
vt 0.125 0.4375
vt 0.1875 0.4375
vt 0.25 0.4375
vt 0.0 0.25
vt 0.0625 0.25
vt 0.125 0.25
vt 0.1875 0.25
vt 0.25 0.25
vn 0.444 0.0 0.0
vn -0.444 0.0 0.0
vn 0.0 0.444 0.0
vn 0.0 -0.444 0.0
vn 0.0 0.0 0.444
vn 0.0 0.0 -0.444
usemtl m_32a6897e-4c41-36a4-cc6b-d8aec3b361de
f 169/98/43 170/97/43 171/102/43
f 169/98/43 171/102/43 172/103/43
f 173/96/44 174/95/44 175/100/44
f 173/96/44 175/100/44 176/101/44
f 177/93/45 178/92/45 179/96/45
f 177/93/45 179/96/45 180/97/45
f 181/98/46 182/97/46 183/93/46
f 181/98/46 183/93/46 184/94/46
f 185/97/47 186/96/47 187/101/47
f 185/97/47 187/101/47 188/102/47
f 189/99/48 190/98/48 191/103/48
f 189/99/48 191/103/48 192/104/48
o oRLeg
v 0.1328125 0.3984375 -0.0703125
v 0.1328125 0.3984375 0.0703125
v 0.1328125 -0.0234375 0.0703125
v 0.1328125 -0.0234375 -0.0703125
v -0.0078125 0.3984375 0.0703125
v -0.0078125 0.3984375 -0.0703125
v -0.0078125 -0.0234375 -0.0703125
v -0.0078125 -0.0234375 0.0703125
v 0.1328125 0.3984375 -0.0703125
v -0.0078125 0.3984375 -0.0703125
v -0.0078125 0.3984375 0.0703125
v 0.1328125 0.3984375 0.0703125
v 0.1328125 -0.0234375 0.0703125
v -0.0078125 -0.0234375 0.0703125
v -0.0078125 -0.0234375 -0.0703125
v 0.1328125 -0.0234375 -0.0703125
v 0.1328125 0.3984375 0.0703125
v -0.0078125 0.3984375 0.0703125
v -0.0078125 -0.0234375 0.0703125
v 0.1328125 -0.0234375 0.0703125
v -0.0078125 0.3984375 -0.0703125
v 0.1328125 0.3984375 -0.0703125
v 0.1328125 -0.0234375 -0.0703125
v -0.0078125 -0.0234375 -0.0703125
vt 0.0625 0.25
vt 0.125 0.25
vt 0.1875 0.25
vt 0.0 0.1875
vt 0.0625 0.1875
vt 0.125 0.1875
vt 0.1875 0.1875
vt 0.25 0.1875
vt 0.0 0.0
vt 0.0625 0.0
vt 0.125 0.0
vt 0.1875 0.0
vt 0.25 0.0
vn 0.444 0.0 0.0
vn -0.444 0.0 0.0
vn 0.0 0.444 0.0
vn 0.0 -0.444 0.0
vn 0.0 0.0 0.444
vn 0.0 0.0 -0.444
usemtl m_32a6897e-4c41-36a4-cc6b-d8aec3b361de
f 193/111/49 194/110/49 195/115/49
f 193/111/49 195/115/49 196/116/49
f 197/109/50 198/108/50 199/113/50
f 197/109/50 199/113/50 200/114/50
f 201/106/51 202/105/51 203/109/51
f 201/106/51 203/109/51 204/110/51
f 205/111/52 206/110/52 207/106/52
f 205/111/52 207/106/52 208/107/52
f 209/110/53 210/109/53 211/114/53
f 209/110/53 211/114/53 212/115/53
f 213/112/54 214/111/54 215/116/54
f 213/112/54 215/116/54 216/117/54
o oRArm
v 0.2578125 0.7734375 -0.0703125
v 0.2578125 0.7734375 0.0703125
v 0.2578125 0.3515625 0.0703125
v 0.2578125 0.3515625 -0.0703125
v 0.1171875 0.7734375 0.0703125
v 0.1171875 0.7734375 -0.0703125
v 0.1171875 0.3515625 -0.0703125
v 0.1171875 0.3515625 0.0703125
v 0.2578125 0.7734375 -0.0703125
v 0.1171875 0.7734375 -0.0703125
v 0.1171875 0.7734375 0.0703125
v 0.2578125 0.7734375 0.0703125
v 0.2578125 0.3515625 0.0703125
v 0.1171875 0.3515625 0.0703125
v 0.1171875 0.3515625 -0.0703125
v 0.2578125 0.3515625 -0.0703125
v 0.2578125 0.7734375 0.0703125
v 0.1171875 0.7734375 0.0703125
v 0.1171875 0.3515625 0.0703125
v 0.2578125 0.3515625 0.0703125
v 0.1171875 0.7734375 -0.0703125
v 0.2578125 0.7734375 -0.0703125
v 0.2578125 0.3515625 -0.0703125
v 0.1171875 0.3515625 -0.0703125
vt 0.8125 0.25
vt 0.875 0.25
vt 0.9375 0.25
vt 0.75 0.1875
vt 0.8125 0.1875
vt 0.875 0.1875
vt 0.9375 0.1875
vt 1.0 0.1875
vt 0.75 0.0
vt 0.8125 0.0
vt 0.875 0.0
vt 0.9375 0.0
vt 1.0 0.0
vn 0.444 0.0 0.0
vn -0.444 0.0 0.0
vn 0.0 0.444 0.0
vn 0.0 -0.444 0.0
vn 0.0 0.0 0.444
vn 0.0 0.0 -0.444
usemtl m_32a6897e-4c41-36a4-cc6b-d8aec3b361de
f 217/124/55 218/123/55 219/128/55
f 217/124/55 219/128/55 220/129/55
f 221/122/56 222/121/56 223/126/56
f 221/122/56 223/126/56 224/127/56
f 225/119/57 226/118/57 227/122/57
f 225/119/57 227/122/57 228/123/57
f 229/124/58 230/123/58 231/119/58
f 229/124/58 231/119/58 232/120/58
f 233/123/59 234/122/59 235/127/59
f 233/123/59 235/127/59 236/128/59
f 237/125/60 238/124/60 239/129/60
f 237/125/60 239/129/60 240/130/60
o oLArm
v -0.1171875 0.7734375 -0.0703125
v -0.1171875 0.7734375 0.0703125
v -0.1171875 0.3515625 0.0703125
v -0.1171875 0.3515625 -0.0703125
v -0.2578125 0.7734375 0.0703125
v -0.2578125 0.7734375 -0.0703125
v -0.2578125 0.3515625 -0.0703125
v -0.2578125 0.3515625 0.0703125
v -0.1171875 0.7734375 -0.0703125
v -0.2578125 0.7734375 -0.0703125
v -0.2578125 0.7734375 0.0703125
v -0.1171875 0.7734375 0.0703125
v -0.1171875 0.3515625 0.0703125
v -0.2578125 0.3515625 0.0703125
v -0.2578125 0.3515625 -0.0703125
v -0.1171875 0.3515625 -0.0703125
v -0.1171875 0.7734375 0.0703125
v -0.2578125 0.7734375 0.0703125
v -0.2578125 0.3515625 0.0703125
v -0.1171875 0.3515625 0.0703125
v -0.2578125 0.7734375 -0.0703125
v -0.1171875 0.7734375 -0.0703125
v -0.1171875 0.3515625 -0.0703125
v -0.2578125 0.3515625 -0.0703125
vt 0.6875 0.5
vt 0.75 0.5
vt 0.8125 0.5
vt 0.625 0.4375
vt 0.6875 0.4375
vt 0.75 0.4375
vt 0.8125 0.4375
vt 0.875 0.4375
vt 0.625 0.25
vt 0.6875 0.25
vt 0.75 0.25
vt 0.8125 0.25
vt 0.875 0.25
vn 0.444 0.0 0.0
vn -0.444 0.0 0.0
vn 0.0 0.444 0.0
vn 0.0 -0.444 0.0
vn 0.0 0.0 0.444
vn 0.0 0.0 -0.444
usemtl m_32a6897e-4c41-36a4-cc6b-d8aec3b361de
f 241/137/61 242/136/61 243/141/61
f 241/137/61 243/141/61 244/142/61
f 245/135/62 246/134/62 247/139/62
f 245/135/62 247/139/62 248/140/62
f 249/132/63 250/131/63 251/135/63
f 249/132/63 251/135/63 252/136/63
f 253/137/64 254/136/64 255/132/64
f 253/137/64 255/132/64 256/133/64
f 257/136/65 258/135/65 259/140/65
f 257/136/65 259/140/65 260/141/65
f 261/138/66 262/137/66 263/142/66
f 261/138/66 263/142/66 264/143/66
o oBody
v 0.140625 0.7734375 -0.0703125
v 0.140625 0.7734375 0.0703125
v 0.140625 0.3515625 0.0703125
v 0.140625 0.3515625 -0.0703125
v -0.140625 0.7734375 0.0703125
v -0.140625 0.7734375 -0.0703125
v -0.140625 0.3515625 -0.0703125
v -0.140625 0.3515625 0.0703125
v 0.140625 0.7734375 -0.0703125
v -0.140625 0.7734375 -0.0703125
v -0.140625 0.7734375 0.0703125
v 0.140625 0.7734375 0.0703125
v 0.140625 0.3515625 0.0703125
v -0.140625 0.3515625 0.0703125
v -0.140625 0.3515625 -0.0703125
v 0.140625 0.3515625 -0.0703125
v 0.140625 0.7734375 0.0703125
v -0.140625 0.7734375 0.0703125
v -0.140625 0.3515625 0.0703125
v 0.140625 0.3515625 0.0703125
v -0.140625 0.7734375 -0.0703125
v 0.140625 0.7734375 -0.0703125
v 0.140625 0.3515625 -0.0703125
v -0.140625 0.3515625 -0.0703125
vt 0.3125 0.5
vt 0.4375 0.5
vt 0.5625 0.5
vt 0.25 0.4375
vt 0.3125 0.4375
vt 0.4375 0.4375
vt 0.5 0.4375
vt 0.625 0.4375
vt 0.25 0.25
vt 0.3125 0.25
vt 0.4375 0.25
vt 0.5 0.25
vt 0.625 0.25
vn 0.444 0.0 0.0
vn -0.444 0.0 0.0
vn 0.0 0.444 0.0
vn 0.0 -0.444 0.0
vn 0.0 0.0 0.444
vn 0.0 0.0 -0.444
usemtl m_32a6897e-4c41-36a4-cc6b-d8aec3b361de
f 265/150/67 266/149/67 267/154/67
f 265/150/67 267/154/67 268/155/67
f 269/148/68 270/147/68 271/152/68
f 269/148/68 271/152/68 272/153/68
f 273/145/69 274/144/69 275/148/69
f 273/145/69 275/148/69 276/149/69
f 277/150/70 278/149/70 279/145/70
f 277/150/70 279/145/70 280/146/70
f 281/149/71 282/148/71 283/153/71
f 281/149/71 283/153/71 284/154/71
f 285/151/72 286/150/72 287/155/72
f 285/151/72 287/155/72 288/156/72
