# Made by Wilux
mtllib steve.mtl

o Head
v 0.125 1.0 -0.125
v 0.125 1.0 0.125
v 0.125 0.75 0.125
v 0.125 0.75 -0.125
v -0.125 1.0 0.125
v -0.125 1.0 -0.125
v -0.125 0.75 -0.125
v -0.125 0.75 0.125
v 0.125 1.0 -0.125
v -0.125 1.0 -0.125
v -0.125 1.0 0.125
v 0.125 1.0 0.125
v 0.125 0.75 0.125
v -0.125 0.75 0.125
v -0.125 0.75 -0.125
v 0.125 0.75 -0.125
v 0.125 1.0 0.125
v -0.125 1.0 0.125
v -0.125 0.75 0.125
v 0.125 0.75 0.125
v -0.125 1.0 -0.125
v 0.125 1.0 -0.125
v 0.125 0.75 -0.125
v -0.125 0.75 -0.125
vt 0.125 1.0
vt 0.25 1.0
vt 0.375 1.0
vt 0.0 0.875
vt 0.125 0.875
vt 0.25 0.875
vt 0.375 0.875
vt 0.5 0.875
vt 0.0 0.75
vt 0.125 0.75
vt 0.25 0.75
vt 0.375 0.75
vt 0.5 0.75
vn 1 0 0
vn -1 0 0
vn 0 1 0
vn 0 -1 0
vn 0 0 1
vn 0 0 -1
usemtl m_32a6897e-4c41-36a4-cc6b-d8aec3b361de
f 1/7/1 2/6/1 3/11/1
f 1/7/1 3/11/1 4/12/1
f 5/5/2 6/4/2 7/9/2
f 5/5/2 7/9/2 8/10/2
f 9/2/3 10/1/3 11/5/3
f 9/2/3 11/5/3 12/6/3
f 13/7/4 14/6/4 15/2/4
f 13/7/4 15/2/4 16/3/4
f 17/6/5 18/5/5 19/10/5
f 17/6/5 19/10/5 20/11/5
f 21/8/6 22/7/6 23/12/6
f 21/8/6 23/12/6 24/13/6
o Body
v 0.125 0.75 -0.0625
v 0.125 0.75 0.0625
v 0.125 0.375 0.0625
v 0.125 0.375 -0.0625
v -0.125 0.75 0.0625
v -0.125 0.75 -0.0625
v -0.125 0.375 -0.0625
v -0.125 0.375 0.0625
v 0.125 0.75 -0.0625
v -0.125 0.75 -0.0625
v -0.125 0.75 0.0625
v 0.125 0.75 0.0625
v 0.125 0.375 0.0625
v -0.125 0.375 0.0625
v -0.125 0.375 -0.0625
v 0.125 0.375 -0.0625
v 0.125 0.75 0.0625
v -0.125 0.75 0.0625
v -0.125 0.375 0.0625
v 0.125 0.375 0.0625
v -0.125 0.75 -0.0625
v 0.125 0.75 -0.0625
v 0.125 0.375 -0.0625
v -0.125 0.375 -0.0625
vt 0.3125 0.75
vt 0.4375 0.75
vt 0.5625 0.75
vt 0.25 0.6875
vt 0.3125 0.6875
vt 0.4375 0.6875
vt 0.5 0.6875
vt 0.625 0.6875
vt 0.25 0.5
vt 0.3125 0.5
vt 0.4375 0.5
vt 0.5 0.5
vt 0.625 0.5
vn 1 0 0
vn -1 0 0
vn 0 1 0
vn 0 -1 0
vn 0 0 1
vn 0 0 -1
usemtl m_32a6897e-4c41-36a4-cc6b-d8aec3b361de
f 25/20/7 26/19/7 27/24/7
f 25/20/7 27/24/7 28/25/7
f 29/18/8 30/17/8 31/22/8
f 29/18/8 31/22/8 32/23/8
f 33/15/9 34/14/9 35/18/9
f 33/15/9 35/18/9 36/19/9
f 37/20/10 38/19/10 39/15/10
f 37/20/10 39/15/10 40/16/10
f 41/19/11 42/18/11 43/23/11
f 41/19/11 43/23/11 44/24/11
f 45/21/12 46/20/12 47/25/12
f 45/21/12 47/25/12 48/26/12
o RArm
v 0.25 0.75 -0.0625
v 0.25 0.75 0.0625
v 0.25 0.375 0.0625
v 0.25 0.375 -0.0625
v 0.125 0.75 0.0625
v 0.125 0.75 -0.0625
v 0.125 0.375 -0.0625
v 0.125 0.375 0.0625
v 0.25 0.75 -0.0625
v 0.125 0.75 -0.0625
v 0.125 0.75 0.0625
v 0.25 0.75 0.0625
v 0.25 0.375 0.0625
v 0.125 0.375 0.0625
v 0.125 0.375 -0.0625
v 0.25 0.375 -0.0625
v 0.25 0.75 0.0625
v 0.125 0.75 0.0625
v 0.125 0.375 0.0625
v 0.25 0.375 0.0625
v 0.125 0.75 -0.0625
v 0.25 0.75 -0.0625
v 0.25 0.375 -0.0625
v 0.125 0.375 -0.0625
vt 0.5625 0.25
vt 0.625 0.25
vt 0.6875 0.25
vt 0.5 0.1875
vt 0.5625 0.1875
vt 0.625 0.1875
vt 0.6875 0.1875
vt 0.75 0.1875
vt 0.5 0.0
vt 0.5625 0.0
vt 0.625 0.0
vt 0.6875 0.0
vt 0.75 0.0
vn 1 0 0
vn -1 0 0
vn 0 1 0
vn 0 -1 0
vn 0 0 1
vn 0 0 -1
usemtl m_32a6897e-4c41-36a4-cc6b-d8aec3b361de
f 49/33/13 50/32/13 51/37/13
f 49/33/13 51/37/13 52/38/13
f 53/31/14 54/30/14 55/35/14
f 53/31/14 55/35/14 56/36/14
f 57/28/15 58/27/15 59/31/15
f 57/28/15 59/31/15 60/32/15
f 61/33/16 62/32/16 63/28/16
f 61/33/16 63/28/16 64/29/16
f 65/32/17 66/31/17 67/36/17
f 65/32/17 67/36/17 68/37/17
f 69/34/18 70/33/18 71/38/18
f 69/34/18 71/38/18 72/39/18
o LArm
v -0.125 0.75 -0.0625
v -0.125 0.75 0.0625
v -0.125 0.375 0.0625
v -0.125 0.375 -0.0625
v -0.25 0.75 0.0625
v -0.25 0.75 -0.0625
v -0.25 0.375 -0.0625
v -0.25 0.375 0.0625
v -0.125 0.75 -0.0625
v -0.25 0.75 -0.0625
v -0.25 0.75 0.0625
v -0.125 0.75 0.0625
v -0.125 0.375 0.0625
v -0.25 0.375 0.0625
v -0.25 0.375 -0.0625
v -0.125 0.375 -0.0625
v -0.125 0.75 0.0625
v -0.25 0.75 0.0625
v -0.25 0.375 0.0625
v -0.125 0.375 0.0625
v -0.25 0.75 -0.0625
v -0.125 0.75 -0.0625
v -0.125 0.375 -0.0625
v -0.25 0.375 -0.0625
vt 0.6875 0.75
vt 0.75 0.75
vt 0.8125 0.75
vt 0.625 0.6875
vt 0.6875 0.6875
vt 0.75 0.6875
vt 0.8125 0.6875
vt 0.875 0.6875
vt 0.625 0.5
vt 0.6875 0.5
vt 0.75 0.5
vt 0.8125 0.5
vt 0.875 0.5
vn 1 0 0
vn -1 0 0
vn 0 1 0
vn 0 -1 0
vn 0 0 1
vn 0 0 -1
usemtl m_32a6897e-4c41-36a4-cc6b-d8aec3b361de
f 73/46/19 74/45/19 75/50/19
f 73/46/19 75/50/19 76/51/19
f 77/44/20 78/43/20 79/48/20
f 77/44/20 79/48/20 80/49/20
f 81/41/21 82/40/21 83/44/21
f 81/41/21 83/44/21 84/45/21
f 85/46/22 86/45/22 87/41/22
f 85/46/22 87/41/22 88/42/22
f 89/45/23 90/44/23 91/49/23
f 89/45/23 91/49/23 92/50/23
f 93/47/24 94/46/24 95/51/24
f 93/47/24 95/51/24 96/52/24
o RLeg
v 0.125 0.375 -0.0625
v 0.125 0.375 0.0625
v 0.125 0.0 0.0625
v 0.125 0.0 -0.0625
v 0.0 0.375 0.0625
v 0.0 0.375 -0.0625
v 0.0 0.0 -0.0625
v 0.0 0.0 0.0625
v 0.125 0.375 -0.0625
v 0.0 0.375 -0.0625
v 0.0 0.375 0.0625
v 0.125 0.375 0.0625
v 0.125 0.0 0.0625
v 0.0 0.0 0.0625
v 0.0 0.0 -0.0625
v 0.125 0.0 -0.0625
v 0.125 0.375 0.0625
v 0.0 0.375 0.0625
v 0.0 0.0 0.0625
v 0.125 0.0 0.0625
v 0.0 0.375 -0.0625
v 0.125 0.375 -0.0625
v 0.125 0.0 -0.0625
v 0.0 0.0 -0.0625
vt 0.3125 0.25
vt 0.375 0.25
vt 0.4375 0.25
vt 0.25 0.1875
vt 0.3125 0.1875
vt 0.375 0.1875
vt 0.4375 0.1875
vt 0.5 0.1875
vt 0.25 0.0
vt 0.3125 0.0
vt 0.375 0.0
vt 0.4375 0.0
vt 0.5 0.0
vn 1 0 0
vn -1 0 0
vn 0 1 0
vn 0 -1 0
vn 0 0 1
vn 0 0 -1
usemtl m_32a6897e-4c41-36a4-cc6b-d8aec3b361de
f 97/59/25 98/58/25 99/63/25
f 97/59/25 99/63/25 100/64/25
f 101/57/26 102/56/26 103/61/26
f 101/57/26 103/61/26 104/62/26
f 105/54/27 106/53/27 107/57/27
f 105/54/27 107/57/27 108/58/27
f 109/59/28 110/58/28 111/54/28
f 109/59/28 111/54/28 112/55/28
f 113/58/29 114/57/29 115/62/29
f 113/58/29 115/62/29 116/63/29
f 117/60/30 118/59/30 119/64/30
f 117/60/30 119/64/30 120/65/30
o LLeg
v 0.0 0.375 -0.0625
v 0.0 0.375 0.0625
v 0.0 0.0 0.0625
v 0.0 0.0 -0.0625
v -0.125 0.375 0.0625
v -0.125 0.375 -0.0625
v -0.125 0.0 -0.0625
v -0.125 0.0 0.0625
v 0.0 0.375 -0.0625
v -0.125 0.375 -0.0625
v -0.125 0.375 0.0625
v 0.0 0.375 0.0625
v 0.0 0.0 0.0625
v -0.125 0.0 0.0625
v -0.125 0.0 -0.0625
v 0.0 0.0 -0.0625
v 0.0 0.375 0.0625
v -0.125 0.375 0.0625
v -0.125 0.0 0.0625
v 0.0 0.0 0.0625
v -0.125 0.375 -0.0625
v 0.0 0.375 -0.0625
v 0.0 0.0 -0.0625
v -0.125 0.0 -0.0625
vt 0.0625 0.75
vt 0.125 0.75
vt 0.1875 0.75
vt 0.0 0.6875
vt 0.0625 0.6875
vt 0.125 0.6875
vt 0.1875 0.6875
vt 0.25 0.6875
vt 0.0 0.5
vt 0.0625 0.5
vt 0.125 0.5
vt 0.1875 0.5
vt 0.25 0.5
vn 1 0 0
vn -1 0 0
vn 0 1 0
vn 0 -1 0
vn 0 0 1
vn 0 0 -1
usemtl m_32a6897e-4c41-36a4-cc6b-d8aec3b361de
f 121/72/31 122/71/31 123/76/31
f 121/72/31 123/76/31 124/77/31
f 125/70/32 126/69/32 127/74/32
f 125/70/32 127/74/32 128/75/32
f 129/67/33 130/66/33 131/70/33
f 129/67/33 131/70/33 132/71/33
f 133/72/34 134/71/34 135/67/34
f 133/72/34 135/67/34 136/68/34
f 137/71/35 138/70/35 139/75/35
f 137/71/35 139/75/35 140/76/35
f 141/73/36 142/72/36 143/77/36
f 141/73/36 143/77/36 144/78/36
